<?xml version="1.0" encoding="UTF-8" standalone="no"?>
<!-- Created with Inkscape (http://www.inkscape.org/) -->

<svg
   xmlns:dc="http://purl.org/dc/elements/1.1/"
   xmlns:cc="http://creativecommons.org/ns#"
   xmlns:rdf="http://www.w3.org/1999/02/22-rdf-syntax-ns#"
   xmlns:svg="http://www.w3.org/2000/svg"
   xmlns="http://www.w3.org/2000/svg"
   xmlns:sodipodi="http://sodipodi.sourceforge.net/DTD/sodipodi-0.dtd"
   xmlns:inkscape="http://www.inkscape.org/namespaces/inkscape"
   width="280.34457"
   height="42.594017"
   viewBox="0 0 280.34457 42.594018"
   id="svg2"
   version="1.1"
   inkscape:version="0.91 r13725"
   sodipodi:docname="logo.svg"
   inkscape:export-filename="/home/dio/workspace/ECMA_2/starpack/assets/logo.png"
   inkscape:export-xdpi="180"
   inkscape:export-ydpi="180">
  <defs
     id="defs4" />
  <sodipodi:namedview
     id="base"
     pagecolor="#ffffff"
     bordercolor="#666666"
     borderopacity="1.0"
     inkscape:pageopacity="0.0"
     inkscape:pageshadow="2"
     inkscape:zoom="1.4"
     inkscape:cx="-239.36696"
     inkscape:cy="-109.4987"
     inkscape:document-units="px"
     inkscape:current-layer="text4136"
     showgrid="false"
     inkscape:window-width="1855"
     inkscape:window-height="1056"
     inkscape:window-x="65"
     inkscape:window-y="24"
     inkscape:window-maximized="1"
     fit-margin-top="10"
     fit-margin-left="0"
     fit-margin-right="0"
     fit-margin-bottom="10"
     units="px" />
  <metadata
     id="metadata7">
    <rdf:RDF>
      <cc:Work
         rdf:about="">
        <dc:format>image/svg+xml</dc:format>
        <dc:type
           rdf:resource="http://purl.org/dc/dcmitype/StillImage" />
        <dc:title></dc:title>
      </cc:Work>
    </rdf:RDF>
  </metadata>
  <g
     inkscape:label="Layer 1"
     inkscape:groupmode="layer"
     id="layer1"
     transform="translate(-152.3737,-398.66529)">
    <g
       style="font-style:normal;font-variant:normal;font-weight:600;font-stretch:normal;font-size:21.25px;line-height:128.99999619%;font-family:'Open Sans';-inkscape-font-specification:'Open Sans, Semi-Bold';text-align:start;letter-spacing:0px;word-spacing:0px;writing-mode:lr-tb;text-anchor:start;fill:#000000;fill-opacity:1;stroke:none;stroke-width:1px;stroke-linecap:butt;stroke-linejoin:miter;stroke-opacity:1"
       id="text4136">
      <path
         d="m 168.83,414.05594 q 0,0.14526 -0.50842,0.96496 -0.49805,0.80933 -0.66406,0.9961 -0.16602,0.17639 -0.42542,0.17639 -0.54993,0 -0.54993,-0.5603 0,-0.16602 0.4773,-0.95459 0.42541,-0.70557 0.62256,-0.95459 0.16601,-0.20752 0.44617,-0.20752 0.6018,0 0.6018,0.53955 z m -10.16846,1.57715 q 0,0.5603 -0.5603,0.5603 -0.16601,0 -0.31128,-0.0726 -0.10376,-0.0519 -0.68481,-0.98572 -0.58106,-0.94421 -0.58106,-1.0791 0,-0.53955 0.59143,-0.53955 0.22828,0 0.35279,0.11413 0.20752,0.32166 0.54992,0.84046 0.64331,0.93384 0.64331,1.16211 z m 14.27735,3.18542 q 0,0.61218 -0.58106,1.0376 -2.39685,1.68091 -4.85595,3.54858 l 1.97143,6.08033 q 0.0104,0.0415 -0.0519,0.29052 -0.22827,0.87159 -1.14135,0.87159 -0.23865,0 -0.46692,-0.11414 -0.18677,-0.0934 -2.10633,-1.51489 -1.00647,-0.7367 -3.01941,-2.21009 -1.29699,0.92347 -3.40332,2.46949 -0.52917,0.40466 -1.61865,1.18286 -0.29053,0.18677 -0.65369,0.18677 -0.47729,0 -0.8197,-0.33204 -0.33203,-0.33203 -0.35278,-0.80932 l 2.01294,-6.11145 q -0.78858,-0.60181 -2.04407,-1.49414 -0.84045,-0.59143 -1.69128,-1.18286 -1.30738,-0.94422 -1.52527,-1.22437 -0.2179,-0.28015 -0.2179,-0.67444 0,-0.37353 0.30091,-0.7782 0.31128,-0.41504 0.67443,-0.41504 l 6.26709,0 q 0.34241,-0.97534 1.30738,-3.89099 0.19714,-0.64331 0.63293,-1.90918 0.30091,-0.75744 1.12061,-0.75744 0.8197,0 1.14136,0.8612 0.0415,0.11414 0.6018,1.83655 l 1.27625,3.85986 6.29821,0 q 0.35279,0 0.66407,0.42542 0.28015,0.39429 0.28015,0.76782 z m -9.70154,11.57959 q 0,0.86121 -0.60181,0.86121 -0.59143,0 -0.59143,-0.87158 l 0,-0.88196 q 0,-0.87158 0.59143,-0.87158 0.60181,0 0.60181,0.89233 l 0,0.87158 z m 8.44605,-11.50696 -6.83777,0 -2.18933,-6.59912 -2.14783,6.52649 -6.87927,0 5.6134,4.11926 -2.13745,6.44349 5.5719,-4.00513 5.56152,4.03625 -2.16858,-6.52649 5.61341,-3.99475 z m -2.82227,0.88196 -3.83911,2.77039 1.55639,4.52392 -3.92211,-2.81189 -3.84949,2.81189 q 0.083,-0.35278 0.15564,-0.70556 0.10376,-0.42542 0.29053,-0.64331 0.47729,-0.54993 1.49414,-1.24512 0.83007,-0.54993 1.64978,-1.09985 l 3.07129,2.17895 -1.16211,-3.56934 3.10241,-2.21008 1.45264,0 z"
         style="font-style:normal;font-variant:normal;font-weight:800;font-stretch:normal;font-family:'Open Sans';-inkscape-font-specification:'Open Sans Ultra-Bold'"
         id="path4310"
         inkscape:connector-curvature="0" />
      <path
         d="m 191.1176,414.05594 q 0,0.14526 -0.50842,0.96496 -0.49805,0.80933 -0.66407,0.9961 -0.16601,0.17639 -0.42541,0.17639 -0.54993,0 -0.54993,-0.5603 0,-0.16602 0.4773,-0.95459 0.42541,-0.70557 0.62256,-0.95459 0.16601,-0.20752 0.44616,-0.20752 0.60181,0 0.60181,0.53955 z m -10.16846,1.57715 q 0,0.5603 -0.5603,0.5603 -0.16602,0 -0.31128,-0.0726 -0.10376,-0.0519 -0.68481,-0.98572 -0.58106,-0.94421 -0.58106,-1.0791 0,-0.53955 0.59143,-0.53955 0.22827,0 0.35279,0.11413 0.20751,0.32166 0.54992,0.84046 0.64331,0.93384 0.64331,1.16211 z m 14.27735,3.18542 q 0,0.61218 -0.58106,1.0376 -2.39685,1.68091 -4.85596,3.54858 l 1.97144,6.08033 q 0.0104,0.0415 -0.0519,0.29052 -0.22827,0.87159 -1.14136,0.87159 -0.23864,0 -0.46692,-0.11414 -0.18676,-0.0934 -2.10632,-1.51489 -1.00647,-0.7367 -3.01941,-2.21009 -1.297,0.92347 -3.40332,2.46949 -0.52917,0.40466 -1.61865,1.18286 -0.29053,0.18677 -0.65369,0.18677 -0.47729,0 -0.8197,-0.33204 -0.33203,-0.33203 -0.35278,-0.80932 l 2.01294,-6.11145 q -0.78858,-0.60181 -2.04407,-1.49414 -0.84046,-0.59143 -1.69129,-1.18286 -1.30737,-0.94422 -1.52526,-1.22437 -0.2179,-0.28015 -0.2179,-0.67444 0,-0.37353 0.3009,-0.7782 0.31128,-0.41504 0.67444,-0.41504 l 6.26709,0 q 0.34241,-0.97534 1.30738,-3.89099 0.19714,-0.64331 0.63293,-1.90918 0.3009,-0.75744 1.12061,-0.75744 0.8197,0 1.14135,0.8612 0.0415,0.11414 0.60181,1.83655 l 1.27624,3.85986 6.29822,0 q 0.35279,0 0.66406,0.42542 0.28016,0.39429 0.28016,0.76782 z m -9.70154,11.57959 q 0,0.86121 -0.60181,0.86121 -0.59143,0 -0.59143,-0.87158 l 0,-0.88196 q 0,-0.87158 0.59143,-0.87158 0.60181,0 0.60181,0.89233 l 0,0.87158 z m 8.44604,-11.50696 -6.83777,0 -2.18933,-6.59912 -2.14782,6.52649 -6.87928,0 5.61341,4.11926 -2.13745,6.44349 5.5719,-4.00513 5.56152,4.03625 -2.16858,-6.52649 5.6134,-3.99475 z m -2.82226,0.88196 -3.83911,2.77039 1.55639,4.52392 -3.92212,-2.81189 -3.84948,2.81189 q 0.083,-0.35278 0.15564,-0.70556 0.10376,-0.42542 0.29052,-0.64331 0.4773,-0.54993 1.49414,-1.24512 0.83008,-0.54993 1.64978,-1.09985 l 3.07129,2.17895 -1.16211,-3.56934 3.10242,-2.21008 1.45264,0 z"
         style="font-style:normal;font-variant:normal;font-weight:800;font-stretch:normal;font-family:'Open Sans';-inkscape-font-specification:'Open Sans Ultra-Bold'"
         id="path4312"
         inkscape:connector-curvature="0" />
      <path
         d="m 213.4052,414.05594 q 0,0.14526 -0.50843,0.96496 -0.49804,0.80933 -0.66406,0.9961 -0.16601,0.17639 -0.42541,0.17639 -0.54993,0 -0.54993,-0.5603 0,-0.16602 0.47729,-0.95459 0.42542,-0.70557 0.62256,-0.95459 0.16602,-0.20752 0.44617,-0.20752 0.60181,0 0.60181,0.53955 z m -10.16846,1.57715 q 0,0.5603 -0.5603,0.5603 -0.16602,0 -0.31128,-0.0726 -0.10376,-0.0519 -0.68482,-0.98572 -0.58105,-0.94421 -0.58105,-1.0791 0,-0.53955 0.59143,-0.53955 0.22827,0 0.35278,0.11413 0.20752,0.32166 0.54993,0.84046 0.64331,0.93384 0.64331,1.16211 z m 14.27734,3.18542 q 0,0.61218 -0.58105,1.0376 -2.39685,1.68091 -4.85596,3.54858 l 1.97144,6.08033 q 0.0104,0.0415 -0.0519,0.29052 -0.22827,0.87159 -1.14136,0.87159 -0.23865,0 -0.46692,-0.11414 -0.18677,-0.0934 -2.10632,-1.51489 -1.00647,-0.7367 -3.01941,-2.21009 -1.297,0.92347 -3.40332,2.46949 -0.52918,0.40466 -1.61865,1.18286 -0.29053,0.18677 -0.65369,0.18677 -0.4773,0 -0.8197,-0.33204 -0.33203,-0.33203 -0.35279,-0.80932 l 2.01294,-6.11145 q -0.78857,-0.60181 -2.04406,-1.49414 -0.84046,-0.59143 -1.69129,-1.18286 -1.30737,-0.94422 -1.52527,-1.22437 -0.21789,-0.28015 -0.21789,-0.67444 0,-0.37353 0.3009,-0.7782 0.31128,-0.41504 0.67444,-0.41504 l 6.26709,0 q 0.34241,-0.97534 1.30737,-3.89099 0.19715,-0.64331 0.63294,-1.90918 0.3009,-0.75744 1.1206,-0.75744 0.81971,0 1.14136,0.8612 0.0415,0.11414 0.60181,1.83655 l 1.27624,3.85986 6.29822,0 q 0.35278,0 0.66406,0.42542 0.28015,0.39429 0.28015,0.76782 z m -9.70153,11.57959 q 0,0.86121 -0.60181,0.86121 -0.59143,0 -0.59143,-0.87158 l 0,-0.88196 q 0,-0.87158 0.59143,-0.87158 0.60181,0 0.60181,0.89233 l 0,0.87158 z m 8.44604,-11.50696 -6.83777,0 -2.18933,-6.59912 -2.14783,6.52649 -6.87927,0 5.6134,4.11926 -2.13745,6.44349 5.5719,-4.00513 5.56153,4.03625 -2.16858,-6.52649 5.6134,-3.99475 z m -2.82226,0.88196 -3.83912,2.77039 1.5564,4.52392 -3.92212,-2.81189 -3.84949,2.81189 q 0.083,-0.35278 0.15564,-0.70556 0.10376,-0.42542 0.29053,-0.64331 0.4773,-0.54993 1.49414,-1.24512 0.83008,-0.54993 1.64978,-1.09985 l 3.07129,2.17895 -1.16211,-3.56934 3.10242,-2.21008 1.45264,0 z"
         style="font-style:normal;font-variant:normal;font-weight:800;font-stretch:normal;font-family:'Open Sans';-inkscape-font-specification:'Open Sans Ultra-Bold'"
         id="path4314"
         inkscape:connector-curvature="0" />
      <path
         d="m 235.52317,412.56529 q -0.1875,0.3 -0.4,0.45 -0.2,0.15 -0.525,0.15 -0.2875,0 -0.625,-0.175 -0.325,-0.1875 -0.75,-0.4125 -0.4125,-0.225 -0.95,-0.4 -0.5375,-0.1875 -1.225,-0.1875 -1.1875,0 -1.775,0.5125 -0.575,0.5 -0.575,1.3625 0,0.55 0.35,0.9125 0.35,0.3625 0.9125,0.625 0.575,0.2625 1.3,0.4875 0.7375,0.2125 1.5,0.4875 0.7625,0.2625 1.4875,0.625 0.7375,0.3625 1.3,0.925 0.575,0.5625 0.925,1.375 0.35,0.8 0.35,1.9375 0,1.2625 -0.4375,2.3625 -0.4375,1.1 -1.275,1.925 -0.825,0.8125 -2.05,1.2875 -1.2125,0.4625 -2.7625,0.4625 -0.85,0 -1.7375,-0.175 -0.875,-0.175 -1.7,-0.4875 -0.825,-0.325 -1.55,-0.7625 -0.725,-0.4375 -1.2625,-0.975 l 1.25,-1.975 q 0.15,-0.2125 0.3875,-0.35 0.25,-0.15 0.5375,-0.15 0.375,0 0.75,0.2375 0.3875,0.2375 0.8625,0.525 0.4875,0.2875 1.1125,0.525 0.625,0.2375 1.475,0.2375 1.15,0 1.7875,-0.5 0.6375,-0.5125 0.6375,-1.6125 0,-0.6375 -0.35,-1.0375 -0.35,-0.4 -0.925,-0.6625 -0.5625,-0.2625 -1.2875,-0.4625 -0.725,-0.2 -1.4875,-0.4375 -0.7625,-0.25 -1.4875,-0.6 -0.725,-0.3625 -1.3,-0.9375 -0.5625,-0.5875 -0.9125,-1.45 -0.35,-0.875 -0.35,-2.15 0,-1.025 0.4125,-2 0.4125,-0.975 1.2125,-1.7375 0.8,-0.7625 1.9625,-1.2125 1.1625,-0.4625 2.6625,-0.4625 0.8375,0 1.625,0.1375 0.8,0.125 1.5125,0.3875 0.7125,0.25 1.325,0.6125 0.625,0.35 1.1125,0.8 l -1.05,1.9625 z"
         style="font-style:normal;font-variant:normal;font-weight:900;font-stretch:normal;font-size:25px;line-height:128.99999619%;font-family:Lato;-inkscape-font-specification:'Lato Heavy';letter-spacing:0.1px"
         id="path4316"
         inkscape:connector-curvature="0" />
      <path
         d="m 252.51535,408.86529 0,3.35 -5.125,0 0,14.8625 -4.225,0 0,-14.8625 -5.125,0 0,-3.35 14.475,0 z"
         style="font-style:normal;font-variant:normal;font-weight:900;font-stretch:normal;font-size:25px;line-height:128.99999619%;font-family:Lato;-inkscape-font-specification:'Lato Heavy';letter-spacing:0.1px"
         id="path4318"
         inkscape:connector-curvature="0" />
      <path
         d="m 269.34191,427.07779 -3.275,0 q -0.55,0 -0.8875,-0.25 -0.3375,-0.2625 -0.5125,-0.6625 l -1.075,-3.175 -6.925,0 -1.075,3.175 q -0.1375,0.35 -0.5,0.6375 -0.35,0.275 -0.875,0.275 l -3.3,0 7.05,-18.2125 4.325,0 7.05,18.2125 z m -11.7,-6.9625 4.975,0 -1.675,-4.9875 q -0.1875,-0.475 -0.4,-1.1125 -0.2125,-0.65 -0.425,-1.4 -0.2,0.7625 -0.4125,1.4125 -0.2,0.65 -0.3875,1.125 l -1.675,4.9625 z"
         style="font-style:normal;font-variant:normal;font-weight:900;font-stretch:normal;font-size:25px;line-height:128.99999619%;font-family:Lato;-inkscape-font-specification:'Lato Heavy';letter-spacing:0.1px"
         id="path4320"
         inkscape:connector-curvature="0" />
      <path
         d="m 275.10286,420.34029 0,6.7375 -4.225,0 0,-18.2125 5.925,0 q 1.975,0 3.3625,0.4125 1.4,0.4 2.275,1.125 0.8875,0.725 1.2875,1.7125 0.4,0.9875 0.4,2.15 0,0.8875 -0.2375,1.675 -0.2375,0.7875 -0.7125,1.4625 -0.4625,0.6625 -1.15,1.1875 -0.675,0.525 -1.5625,0.8625 0.425,0.2125 0.7875,0.5375 0.3625,0.3125 0.65,0.75 l 3.875,6.3375 -3.825,0 q -1.0625,0 -1.525,-0.8 l -3.025,-5.2875 q -0.2125,-0.3375 -0.475,-0.4875 -0.2625,-0.1625 -0.75,-0.1625 l -1.075,0 z m 0,-2.9125 1.7,0 q 0.8625,0 1.4625,-0.2125 0.6125,-0.225 1,-0.6125 0.3875,-0.3875 0.5625,-0.9 0.175,-0.525 0.175,-1.125 0,-1.2 -0.7875,-1.875 -0.775,-0.675 -2.4125,-0.675 l -1.7,0 0,5.4 z"
         style="font-style:normal;font-variant:normal;font-weight:900;font-stretch:normal;font-size:25px;line-height:128.99999619%;font-family:Lato;-inkscape-font-specification:'Lato Heavy';letter-spacing:0.1px"
         id="path4322"
         inkscape:connector-curvature="0" />
      <path
         d="m 286.97043,417.91529 6.75,0 0,3.125 -6.75,0 0,-3.125 z"
         style="font-style:normal;font-variant:normal;font-weight:900;font-stretch:normal;font-size:25px;line-height:128.99999619%;font-family:Lato;-inkscape-font-specification:'Lato Heavy';letter-spacing:0.1px"
         id="path4324"
         inkscape:connector-curvature="0" />
      <path
         d="m 301.0841,420.99029 0,6.0875 -4.225,0 0,-18.2125 6.425,0 q 1.925,0 3.3,0.4625 1.3875,0.45 2.275,1.25 0.9,0.8 1.325,1.8875 0.425,1.0875 0.425,2.35 0,1.3625 -0.4375,2.5 -0.4375,1.1375 -1.3375,1.95 -0.9,0.8125 -2.2875,1.275 -1.375,0.45 -3.2625,0.45 l -2.2,0 z m 0,-3.1875 2.2,0 q 1.65,0 2.375,-0.7875 0.725,-0.7875 0.725,-2.2 0,-0.625 -0.1875,-1.1375 -0.1875,-0.5125 -0.575,-0.875 -0.375,-0.375 -0.9625,-0.575 -0.575,-0.2 -1.375,-0.2 l -2.2,0 0,5.775 z"
         style="font-style:normal;font-variant:normal;font-weight:900;font-stretch:normal;font-size:25px;line-height:128.99999619%;font-family:Lato;-inkscape-font-specification:'Lato Heavy';letter-spacing:0.1px"
         id="path4326"
         inkscape:connector-curvature="0" />
      <path
         d="m 327.94505,427.07779 -3.275,0 q -0.55,0 -0.8875,-0.25 -0.3375,-0.2625 -0.5125,-0.6625 l -1.075,-3.175 -6.925,0 -1.075,3.175 q -0.1375,0.35 -0.5,0.6375 -0.35,0.275 -0.875,0.275 l -3.3,0 7.05,-18.2125 4.325,0 7.05,18.2125 z m -11.7,-6.9625 4.975,0 -1.675,-4.9875 q -0.1875,-0.475 -0.4,-1.1125 -0.2125,-0.65 -0.425,-1.4 -0.2,0.7625 -0.4125,1.4125 -0.2,0.65 -0.3875,1.125 l -1.675,4.9625 z"
         style="font-style:normal;font-variant:normal;font-weight:900;font-stretch:normal;font-size:25px;line-height:128.99999619%;font-family:Lato;-inkscape-font-specification:'Lato Heavy';letter-spacing:0.1px"
         id="path4328"
         inkscape:connector-curvature="0" />
      <path
         d="m 341.17004,422.36529 q 0.15,0 0.3,0.0625 0.15,0.05 0.2875,0.1875 l 1.675,1.7625 q -1.1,1.4375 -2.7625,2.175 -1.65,0.725 -3.9125,0.725 -2.075,0 -3.725,-0.7 -1.6375,-0.7125 -2.7875,-1.95 -1.1375,-1.25 -1.75,-2.95 -0.6125,-1.7125 -0.6125,-3.7125 0,-2.0375 0.6625,-3.7375 0.6625,-1.7125 1.8625,-2.95 1.2,-1.2375 2.875,-1.925 1.675,-0.6875 3.6875,-0.6875 1.025,0 1.925,0.1875 0.9125,0.175 1.7,0.5 0.7875,0.3125 1.45,0.7625 0.6625,0.45 1.175,0.975 l -1.425,1.9125 q -0.1375,0.175 -0.325,0.325 -0.1875,0.1375 -0.525,0.1375 -0.225,0 -0.425,-0.1 -0.2,-0.1 -0.425,-0.2375 -0.225,-0.15 -0.5,-0.3125 -0.2625,-0.175 -0.6375,-0.3125 -0.3625,-0.15 -0.8625,-0.25 -0.4875,-0.1 -1.15,-0.1 -1.05,0 -1.925,0.3875 -0.8625,0.3875 -1.5,1.1375 -0.625,0.7375 -0.975,1.825 -0.3375,1.075 -0.3375,2.4625 0,1.4 0.375,2.4875 0.3875,1.0875 1.0375,1.8375 0.6625,0.7375 1.5375,1.125 0.875,0.3875 1.875,0.3875 0.575,0 1.05,-0.05 0.475,-0.0625 0.8875,-0.1875 0.4125,-0.1375 0.775,-0.35 0.3625,-0.225 0.7375,-0.5625 0.15,-0.125 0.325,-0.2 0.175,-0.0875 0.3625,-0.0875 z"
         style="font-style:normal;font-variant:normal;font-weight:900;font-stretch:normal;font-size:25px;line-height:128.99999619%;font-family:Lato;-inkscape-font-specification:'Lato Heavy';letter-spacing:0.1px"
         id="path4330"
         inkscape:connector-curvature="0" />
      <path
         d="m 349.62629,416.24029 0.675,0 q 0.9375,0 1.35,-0.5875 l 4.1,-5.95 q 0.3625,-0.475 0.775,-0.65 0.425,-0.1875 1.05,-0.1875 l 3.675,0 -5.4,7.3625 q -0.575,0.7625 -1.2375,1.1 0.475,0.175 0.8625,0.4875 0.3875,0.3125 0.725,0.8125 l 5.5,8.45 -3.775,0 q -0.3625,0 -0.625,-0.05 -0.25,-0.05 -0.4375,-0.15 -0.1875,-0.1 -0.325,-0.2375 -0.1375,-0.15 -0.2625,-0.3375 l -4.125,-6.3375 q -0.225,-0.35 -0.575,-0.4875 -0.3375,-0.15 -0.925,-0.15 l -1.025,0 0,7.75 -4.225,0 0,-18.2125 4.225,0 0,7.375 z"
         style="font-style:normal;font-variant:normal;font-weight:900;font-stretch:normal;font-size:25px;line-height:128.99999619%;font-family:Lato;-inkscape-font-specification:'Lato Heavy';letter-spacing:0.1px"
         id="path4332"
         inkscape:connector-curvature="0" />
      <path
         d="m 384.03419,414.05594 q 0,0.14526 -0.50842,0.96496 -0.49804,0.80933 -0.66406,0.9961 -0.16602,0.17639 -0.42542,0.17639 -0.54992,0 -0.54992,-0.5603 0,-0.16602 0.47729,-0.95459 0.42542,-0.70557 0.62256,-0.95459 0.16602,-0.20752 0.44617,-0.20752 0.6018,0 0.6018,0.53955 z m -10.16845,1.57715 q 0,0.5603 -0.5603,0.5603 -0.16602,0 -0.31128,-0.0726 -0.10376,-0.0519 -0.68482,-0.98572 -0.58105,-0.94421 -0.58105,-1.0791 0,-0.53955 0.59143,-0.53955 0.22827,0 0.35278,0.11413 0.20752,0.32166 0.54993,0.84046 0.64331,0.93384 0.64331,1.16211 z m 14.27734,3.18542 q 0,0.61218 -0.58105,1.0376 -2.39685,1.68091 -4.85596,3.54858 l 1.97144,6.08033 q 0.0104,0.0415 -0.0519,0.29052 -0.22828,0.87159 -1.14136,0.87159 -0.23865,0 -0.46692,-0.11414 -0.18677,-0.0934 -2.10632,-1.51489 -1.00647,-0.7367 -3.01941,-2.21009 -1.297,0.92347 -3.40332,2.46949 -0.52918,0.40466 -1.61866,1.18286 -0.29052,0.18677 -0.65368,0.18677 -0.4773,0 -0.8197,-0.33204 -0.33204,-0.33203 -0.35279,-0.80932 l 2.01294,-6.11145 q -0.78857,-0.60181 -2.04407,-1.49414 -0.84045,-0.59143 -1.69128,-1.18286 -1.30737,-0.94422 -1.52527,-1.22437 -0.21789,-0.28015 -0.21789,-0.67444 0,-0.37353 0.3009,-0.7782 0.31128,-0.41504 0.67444,-0.41504 l 6.26709,0 q 0.3424,-0.97534 1.30737,-3.89099 0.19714,-0.64331 0.63294,-1.90918 0.3009,-0.75744 1.1206,-0.75744 0.8197,0 1.14136,0.8612 0.0415,0.11414 0.6018,1.83655 l 1.27625,3.85986 6.29822,0 q 0.35278,0 0.66406,0.42542 0.28015,0.39429 0.28015,0.76782 z m -9.70154,11.57959 q 0,0.86121 -0.6018,0.86121 -0.59143,0 -0.59143,-0.87158 l 0,-0.88196 q 0,-0.87158 0.59143,-0.87158 0.6018,0 0.6018,0.89233 l 0,0.87158 z m 8.44605,-11.50696 -6.83777,0 -2.18933,-6.59912 -2.14783,6.52649 -6.87927,0 5.6134,4.11926 -2.13745,6.44349 5.5719,-4.00513 5.56152,4.03625 -2.16857,-6.52649 5.6134,-3.99475 z m -2.82227,0.88196 -3.83911,2.77039 1.5564,4.52392 -3.92212,-2.81189 -3.84949,2.81189 q 0.083,-0.35278 0.15564,-0.70556 0.10376,-0.42542 0.29053,-0.64331 0.47729,-0.54993 1.49414,-1.24512 0.83008,-0.54993 1.64978,-1.09985 l 3.07129,2.17895 -1.16211,-3.56934 3.10242,-2.21008 1.45263,0 z"
         style="font-style:normal;font-variant:normal;font-weight:800;font-stretch:normal;font-family:'Open Sans';-inkscape-font-specification:'Open Sans Ultra-Bold'"
         id="path4334"
         inkscape:connector-curvature="0" />
      <path
         d="m 406.32179,414.05594 q 0,0.14526 -0.50842,0.96496 -0.49805,0.80933 -0.66406,0.9961 -0.16602,0.17639 -0.42542,0.17639 -0.54992,0 -0.54992,-0.5603 0,-0.16602 0.47729,-0.95459 0.42542,-0.70557 0.62256,-0.95459 0.16601,-0.20752 0.44617,-0.20752 0.6018,0 0.6018,0.53955 z m -10.16845,1.57715 q 0,0.5603 -0.56031,0.5603 -0.16601,0 -0.31128,-0.0726 -0.10376,-0.0519 -0.68481,-0.98572 -0.58106,-0.94421 -0.58106,-1.0791 0,-0.53955 0.59144,-0.53955 0.22827,0 0.35278,0.11413 0.20752,0.32166 0.54993,0.84046 0.64331,0.93384 0.64331,1.16211 z m 14.27734,3.18542 q 0,0.61218 -0.58106,1.0376 -2.39685,1.68091 -4.85595,3.54858 l 1.97143,6.08033 q 0.0104,0.0415 -0.0519,0.29052 -0.22827,0.87159 -1.14135,0.87159 -0.23865,0 -0.46692,-0.11414 -0.18677,-0.0934 -2.10633,-1.51489 -1.00647,-0.7367 -3.01941,-2.21009 -1.29699,0.92347 -3.40332,2.46949 -0.52917,0.40466 -1.61865,1.18286 -0.29053,0.18677 -0.65368,0.18677 -0.4773,0 -0.81971,-0.33204 -0.33203,-0.33203 -0.35278,-0.80932 l 2.01294,-6.11145 q -0.78857,-0.60181 -2.04407,-1.49414 -0.84045,-0.59143 -1.69128,-1.18286 -1.30738,-0.94422 -1.52527,-1.22437 -0.2179,-0.28015 -0.2179,-0.67444 0,-0.37353 0.30091,-0.7782 0.31128,-0.41504 0.67444,-0.41504 l 6.26709,0 q 0.3424,-0.97534 1.30737,-3.89099 0.19714,-0.64331 0.63293,-1.90918 0.30091,-0.75744 1.12061,-0.75744 0.8197,0 1.14136,0.8612 0.0415,0.11414 0.6018,1.83655 l 1.27625,3.85986 6.29822,0 q 0.35278,0 0.66406,0.42542 0.28015,0.39429 0.28015,0.76782 z m -9.70154,11.57959 q 0,0.86121 -0.60181,0.86121 -0.59143,0 -0.59143,-0.87158 l 0,-0.88196 q 0,-0.87158 0.59143,-0.87158 0.60181,0 0.60181,0.89233 l 0,0.87158 z m 8.44605,-11.50696 -6.83777,0 -2.18933,-6.59912 -2.14783,6.52649 -6.87927,0 5.6134,4.11926 -2.13745,6.44349 5.5719,-4.00513 5.56152,4.03625 -2.16858,-6.52649 5.61341,-3.99475 z m -2.82227,0.88196 -3.83911,2.77039 1.5564,4.52392 -3.92212,-2.81189 -3.84949,2.81189 q 0.083,-0.35278 0.15564,-0.70556 0.10376,-0.42542 0.29053,-0.64331 0.47729,-0.54993 1.49414,-1.24512 0.83007,-0.54993 1.64978,-1.09985 l 3.07129,2.17895 -1.16211,-3.56934 3.10241,-2.21008 1.45264,0 z"
         style="font-style:normal;font-variant:normal;font-weight:800;font-stretch:normal;font-family:'Open Sans';-inkscape-font-specification:'Open Sans Ultra-Bold'"
         id="path4336"
         inkscape:connector-curvature="0" />
      <path
         d="m 428.60939,414.05594 q 0,0.14526 -0.50842,0.96496 -0.49805,0.80933 -0.66407,0.9961 -0.16601,0.17639 -0.42541,0.17639 -0.54993,0 -0.54993,-0.5603 0,-0.16602 0.4773,-0.95459 0.42541,-0.70557 0.62256,-0.95459 0.16601,-0.20752 0.44616,-0.20752 0.60181,0 0.60181,0.53955 z m -10.16846,1.57715 q 0,0.5603 -0.5603,0.5603 -0.16602,0 -0.31128,-0.0726 -0.10376,-0.0519 -0.68481,-0.98572 -0.58106,-0.94421 -0.58106,-1.0791 0,-0.53955 0.59143,-0.53955 0.22827,0 0.35279,0.11413 0.20752,0.32166 0.54992,0.84046 0.64331,0.93384 0.64331,1.16211 z m 14.27735,3.18542 q 0,0.61218 -0.58106,1.0376 -2.39685,1.68091 -4.85595,3.54858 l 1.97143,6.08033 q 0.0104,0.0415 -0.0519,0.29052 -0.22827,0.87159 -1.14136,0.87159 -0.23864,0 -0.46692,-0.11414 -0.18676,-0.0934 -2.10632,-1.51489 -1.00647,-0.7367 -3.01941,-2.21009 -1.29699,0.92347 -3.40332,2.46949 -0.52917,0.40466 -1.61865,1.18286 -0.29053,0.18677 -0.65369,0.18677 -0.47729,0 -0.8197,-0.33204 -0.33203,-0.33203 -0.35278,-0.80932 l 2.01294,-6.11145 q -0.78858,-0.60181 -2.04407,-1.49414 -0.84045,-0.59143 -1.69128,-1.18286 -1.30738,-0.94422 -1.52527,-1.22437 -0.2179,-0.28015 -0.2179,-0.67444 0,-0.37353 0.3009,-0.7782 0.31128,-0.41504 0.67444,-0.41504 l 6.26709,0 q 0.34241,-0.97534 1.30738,-3.89099 0.19714,-0.64331 0.63293,-1.90918 0.3009,-0.75744 1.12061,-0.75744 0.8197,0 1.14135,0.8612 0.0415,0.11414 0.60181,1.83655 l 1.27625,3.85986 6.29821,0 q 0.35279,0 0.66407,0.42542 0.28015,0.39429 0.28015,0.76782 z m -9.70154,11.57959 q 0,0.86121 -0.60181,0.86121 -0.59143,0 -0.59143,-0.87158 l 0,-0.88196 q 0,-0.87158 0.59143,-0.87158 0.60181,0 0.60181,0.89233 l 0,0.87158 z m 8.44604,-11.50696 -6.83776,0 -2.18934,-6.59912 -2.14782,6.52649 -6.87928,0 5.61341,4.11926 -2.13745,6.44349 5.5719,-4.00513 5.56152,4.03625 -2.16858,-6.52649 5.6134,-3.99475 z m -2.82226,0.88196 -3.83911,2.77039 1.55639,4.52392 -3.92212,-2.81189 -3.84948,2.81189 q 0.083,-0.35278 0.15564,-0.70556 0.10376,-0.42542 0.29052,-0.64331 0.4773,-0.54993 1.49414,-1.24512 0.83008,-0.54993 1.64978,-1.09985 l 3.07129,2.17895 -1.16211,-3.56934 3.10242,-2.21008 1.45264,0 z"
         style="font-style:normal;font-variant:normal;font-weight:800;font-stretch:normal;font-family:'Open Sans';-inkscape-font-specification:'Open Sans Ultra-Bold'"
         id="path4338"
         inkscape:connector-curvature="0" />
    </g>
  </g>
</svg>
